<svg xmlns="http://www.w3.org/2000/svg" width="24" height="24" viewBox="0 0 24 24" fill="none" class="injected-svg" data-src="/icons/arrow-reload-horizontal-stroke-sharp.svg" xmlns:xlink="http://www.w3.org/1999/xlink" role="img" color="#000000">
<path d="M21 6.50002L21.5303 7.03035L22.0607 6.50002L21.5303 5.96969L21 6.50002ZM5.00016 6.50002V5.75002C4.58596 5.75002 4.25018 6.08579 4.25016 6.49999L5.00016 6.50002ZM21 5.75002H5.00016V7.25002H21V5.75002ZM4.25016 6.49999L4.25 11L5.75 11L5.75016 6.50005L4.25016 6.49999ZM21.5303 5.96969L18.0303 2.46967L16.9697 3.53033L20.4697 7.03035L21.5303 5.96969ZM18.0303 10.5304L21.5303 7.03035L20.4697 5.96969L16.9697 9.46971L18.0303 10.5304Z" fill="#000000"></path>
<path d="M3 17.5004L2.46967 16.9701L1.93933 17.5004L2.46968 18.0308L3 17.5004ZM19.002 17.5L19.002 18.25C19.4162 18.25 19.752 17.9142 19.752 17.5H19.002ZM3.00002 18.2504L19.002 18.25L19.0019 16.75L2.99998 16.7504L3.00002 18.2504ZM19.752 17.5V13H18.252V17.5H19.752ZM3.53033 18.0308L7.03037 14.5307L5.96971 13.47L2.46967 16.9701L3.53033 18.0308ZM7.03036 20.47L3.53032 16.9701L2.46968 18.0308L5.96972 21.5307L7.03036 20.47Z" fill="#000000"></path>
</svg>